<svg width="10" height="10" viewBox="0 0 10 10" fill="none" xmlns="http://www.w3.org/2000/svg">
<g clip-path="url(#clip0_101_9717)">
<path d="M6.785 8.93031C5.745 8.93031 4.94834 8.57365 4.395 7.86031C3.84167 7.14698 3.565 6.11031 3.565 4.75031C3.565 3.39031 3.84834 2.35365 4.415 1.64031C4.98167 0.926979 5.805 0.570312 6.885 0.570312C7.485 0.570312 8.005 0.693646 8.445 0.940313C8.89167 1.18031 9.24167 1.53031 9.495 1.99031C9.755 2.45031 9.905 3.00031 9.945 3.64031H8.515C8.415 3.10698 8.22834 2.70031 7.955 2.42031C7.68167 2.13365 7.325 1.99031 6.885 1.99031C6.285 1.99031 5.83834 2.22031 5.545 2.68031C5.25167 3.13365 5.105 3.82365 5.105 4.75031C5.105 5.67698 5.24167 6.37031 5.515 6.83031C5.795 7.28365 6.21834 7.51031 6.785 7.51031C7.205 7.51031 7.545 7.38031 7.805 7.12031C8.065 6.85365 8.245 6.47365 8.345 5.98031H9.765C9.725 6.59365 9.57834 7.12031 9.325 7.56031C9.07834 8.00031 8.73834 8.34031 8.305 8.58031C7.87834 8.81365 7.37167 8.93031 6.785 8.93031Z" fill="#3387C5"/>
<path opacity="0.5" d="M2.3147 4.74976C2.3147 5.04798 2.33097 5.33996 2.3562 5.625H-0.0625V4.375H2.32446C2.32 4.49883 2.3147 4.62371 2.3147 4.74976Z" fill="#3387C5"/>
<path opacity="0.3" d="M2.56616 6.875C2.686 7.32297 2.85378 7.74151 3.07397 8.125H-0.0625V6.875H2.56616Z" fill="#3387C5"/>
<path d="M2.83472 1.875C2.66492 2.26459 2.54027 2.68308 2.4563 3.125H-0.0625V1.875H2.83472Z" fill="#3387C5"/>
</g>
<defs>
<clipPath id="clip0_101_9717">
<rect width="10" height="10" fill="white"/>
</clipPath>
</defs>
</svg>
