<svg width="16" height="16" viewBox="0 0 16 16" fill="none" xmlns="http://www.w3.org/2000/svg">
<g clip-path="url(#clip0_6571_1604)">
<path d="M4.25 2C5.49 2 6.5 3.01 6.5 4.25C6.5 5.49 5.49 6.5 4.25 6.5C3.01 6.5 2 5.49 2 4.25C2 3.01 3.01 2 4.25 2ZM4.25 1C2.46 1 1 2.46 1 4.25C1 6.04 2.46 7.5 4.25 7.5C6.04 7.5 7.5 6.04 7.5 4.25C7.5 2.46 6.04 1 4.25 1Z" fill="#3387C5"/>
<path d="M11.75 9.5C12.99 9.5 14 10.51 14 11.75C14 12.99 12.99 14 11.75 14C10.51 14 9.5 12.99 9.5 11.75C9.5 10.51 10.51 9.5 11.75 9.5ZM11.75 8.5C9.96 8.5 8.5 9.96 8.5 11.75C8.5 13.54 9.96 15 11.75 15C13.54 15 15 13.54 15 11.75C15 9.96 13.54 8.5 11.75 8.5Z" fill="#3387C5"/>
<path d="M15 1H13.5L1 15H2.5L15 1Z" fill="#3387C5"/>
</g>
<defs>
<clipPath id="clip0_6571_1604">
<rect width="16" height="16" fill="white"/>
</clipPath>
</defs>
</svg>
