<svg width="10" height="10" viewBox="0 0 10 10" fill="none" xmlns="http://www.w3.org/2000/svg">
<path d="M5.28989 6.60031C5.38322 6.90031 5.56322 7.13031 5.82989 7.29031C6.09655 7.45031 6.43655 7.53031 6.84989 7.53031C7.29655 7.53031 7.64655 7.43698 7.89989 7.25031C8.15989 7.05698 8.28989 6.79698 8.28989 6.47031C8.28989 6.22365 8.20322 6.02365 8.02989 5.87031C7.86322 5.71698 7.61655 5.62365 7.28989 5.59031L6.17989 5.46031C5.43322 5.36698 4.85989 5.11698 4.45989 4.71031C4.05989 4.30365 3.85989 3.76365 3.85989 3.09031C3.85989 2.57031 3.98322 2.12365 4.22989 1.75031C4.47655 1.37698 4.82322 1.08698 5.26989 0.880312C5.72322 0.673646 6.25655 0.570312 6.86989 0.570312C7.48322 0.570312 8.01322 0.670312 8.45989 0.870312C8.91322 1.07031 9.26989 1.35698 9.52989 1.73031C9.78989 2.10365 9.93655 2.56031 9.96989 3.10031H8.48989C8.40322 2.73365 8.21989 2.45365 7.93989 2.26031C7.65989 2.06698 7.30322 1.97031 6.86989 1.97031C6.39655 1.97031 6.02655 2.06698 5.75989 2.26031C5.49989 2.45365 5.36989 2.71698 5.36989 3.05031C5.36989 3.29698 5.45322 3.49698 5.61989 3.65031C5.79322 3.79698 6.03989 3.89031 6.35989 3.93031L7.47989 4.06031C8.22655 4.14698 8.79655 4.39698 9.18989 4.81031C9.58989 5.21698 9.78989 5.75698 9.78989 6.43031C9.78989 6.94365 9.66989 7.38698 9.42989 7.76031C9.18989 8.13365 8.84989 8.42365 8.40989 8.63031C7.96989 8.83031 7.44989 8.93031 6.84989 8.93031C6.24322 8.93031 5.71322 8.84031 5.25989 8.66031C4.81322 8.47365 4.45989 8.20698 4.19989 7.86031C3.94655 7.51365 3.79989 7.09365 3.75989 6.60031H5.28989Z" fill="#3387C5"/>
<path d="M2.79732 1.875C2.67075 2.26311 2.61059 2.67121 2.61055 3.0896C2.61055 3.10141 2.61168 3.11321 2.61177 3.125H0V1.875H2.79732Z" fill="#3387C5"/>
<path opacity="0.5" d="M2.82051 4.375C2.94214 4.72391 3.38407 5.32756 3.62495 5.625H2.42622H0V4.375H2.82051Z" fill="#3387C5"/>
<path opacity="0.3" d="M2.53365 6.875C2.58689 7.31391 2.70532 7.73512 2.9023 8.125H0V6.875H2.53365Z" fill="#3387C5"/>
</svg>
