<?xml version="1.0" encoding="UTF-8"?>
<svg id="Layer_1" data-name="Layer 1" xmlns="http://www.w3.org/2000/svg" viewBox="0 0 200 80">
  <path d="M34.98,37.51l-11.77,6.63-12.6-7.08-.61.33v5.14l13.21,7.41,11.77-6.6v2.72l-11.77,6.63-12.6-7.08-.61.33v.88l13.21,7.41,13.18-7.41v-5.14l-.61-.33-12.58,7.05-11.8-6.6v-2.72l11.8,6.6,13.18-7.4v-5.07l-.66-.38-12.53,7.03-11.19-6.25,11.19-6.27,9.19,5.16.81-.45v-.63l-10-5.62-13.21,7.41v.81l13.21,7.41,11.77-6.63v2.72Z" fill="#ee3d2c"/>
  <path d="M61.07,50.01v-22.62h-3.49v8.46c0,.13-.08.23-.2.28-.11.04-.24.01-.33-.08-1.19-1.39-3.03-2.17-5.05-2.17-4.32,0-7.7,3.63-7.7,8.26,0,2.27.78,4.36,2.22,5.9,1.42,1.52,3.4,2.38,5.48,2.37,2,0,3.84-.83,5.05-2.27.08-.1.23-.13.33-.1.13.05.2.15.2.28v1.69h3.48ZM52.76,47.26c-2.78,0-4.95-2.24-4.95-5.11s2.17-5.12,4.95-5.12,4.95,2.24,4.95,5.11-2.17,5.11-4.95,5.11M79.71,50.01v-15.75h-3.46v1.59c0,.13-.08.23-.2.28-.12.05-.26,0-.33-.1-1.16-1.39-2.98-2.17-5.05-2.17-4.32,0-7.7,3.63-7.7,8.26s3.38,8.26,7.7,8.26c2,0,3.84-.83,5.05-2.29.08-.1.23-.13.33-.1.13.05.2.15.2.28v1.71h3.46v.03ZM71.45,47.26c-2.78,0-4.95-2.24-4.95-5.11s2.17-5.12,4.95-5.12,4.95,2.24,4.95,5.11-2.17,5.11-4.95,5.11M109.33,50.01v-15.75h-3.46v1.59c0,.13-.08.23-.2.28s-.25,0-.33-.1c-1.16-1.39-2.98-2.17-5.05-2.17-4.34,0-7.7,3.63-7.7,8.29s3.38,8.26,7.7,8.26c2,0,3.84-.83,5.05-2.29.08-.1.23-.13.33-.1.13.05.2.15.2.28v1.71h3.46ZM101.07,47.26c-2.78,0-4.95-2.24-4.95-5.11s2.17-5.12,4.95-5.12,4.95,2.24,4.95,5.11-2.17,5.11-4.95,5.11M115.67,48.14s.08-.03.1-.03c.08,0,.18.05.23.1,1.19,1.39,3.03,2.17,5.05,2.17,4.32,0,7.7-3.63,7.7-8.26,0-2.27-.78-4.36-2.22-5.9-1.41-1.52-3.4-2.38-5.48-2.37-2,0-3.84.83-5.05,2.27-.08.1-.2.13-.33.1-.13-.05-.2-.15-.2-.28v-8.57h-3.49v22.62h3.49v-1.58c0-.13.08-.23.2-.28M115.32,42.15c0-2.87,2.17-5.11,4.95-5.11s4.95,2.24,4.95,5.11-2.17,5.11-4.95,5.11-4.95-2.27-4.95-5.11M138.83,37.49c.33,0,.63.03.83.08v-3.58c-.19-.03-.39-.05-.58-.05-1.82,0-3.49.93-4.37,2.42-.08.13-.2.18-.33.13-.13-.03-.22-.14-.23-.28v-1.94h-3.46v15.77h3.49v-6.95c0-3.45,1.77-5.59,4.65-5.59M145.4,34.26h-3.54v15.77h3.54v-15.77ZM143.58,27.41c-1.18-.03-2.17.9-2.2,2.09s.9,2.17,2.09,2.2c.04,0,.07,0,.11,0,1.18.04,2.18-.88,2.22-2.06.04-1.18-.88-2.18-2.06-2.22-.05,0-.1,0-.15,0M155.75,33.86c-4.85,0-8.36,3.48-8.36,8.29,0,2.34.83,4.43,2.32,5.95,1.52,1.51,3.64,2.34,6.01,2.34,1.97,0,3.49-.38,6.37-2.5l-2-2.09c-1.42.93-2.73,1.39-4.02,1.39-2.93,0-5.13-2.19-5.13-5.09s2.2-5.09,5.13-5.09c1.39,0,2.68.45,3.97,1.39l2.22-2.09c-2.6-2.22-4.95-2.5-6.52-2.5M168.23,43.08c.05-.05.13-.08.2-.08h.02c.08,0,.15.05.23.1l5.58,6.9h4.29l-7.22-8.72c-.1-.13-.1-.3.02-.4l6.64-6.63h-4.27l-5.73,5.75c-.08.08-.2.1-.33.08-.11-.05-.18-.16-.18-.28v-12.4h-3.51v22.62h3.49v-6.15c0-.08.02-.18.1-.23l.66-.58Z"/>
  <path d="M184.24,50.41c2.85,0,5.76-1.74,5.76-5.04,0-2.17-1.36-3.65-4.14-4.56l-1.9-.63c-1.29-.43-1.89-1.03-1.89-1.86,0-.96.86-1.61,2.07-1.61s2.2.76,2.85,2.07l2.8-1.51c-1.04-2.12-3.18-3.43-5.66-3.43-3.13,0-5.4,2.02-5.4,4.76,0,2.19,1.31,3.65,4.01,4.51l1.95.63c1.36.43,1.94.98,1.94,1.86,0,1.34-1.24,1.81-2.3,1.81-1.41,0-2.68-.91-3.28-2.39l-2.85,1.51c.93,2.39,3.23,3.88,6.04,3.88M89.41,50.26c1.11,0,2.1-.1,2.65-.18v-3.02c-.58.06-1.16.09-1.74.1-1.41,0-2.5-.25-2.5-3.3v-6.47c0-.18.13-.3.3-.3h3.41v-2.85h-3.41c-.16,0-.3-.12-.3-.28,0,0,0-.01,0-.02v-4.54h-3.49v4.56c0,.18-.13.3-.3.3h-2.42v2.85h2.42c.18,0,.3.13.3.3v7.33c0,5.52,3.69,5.52,5.08,5.52"/>
</svg>