<?xml version="1.0" encoding="UTF-8"?>
<svg id="Layer_1" data-name="Layer 1" xmlns="http://www.w3.org/2000/svg" viewBox="0 0 200 80">
  <g>
    <path d="M73.2,43.11c0-.55-.2-.98-.59-1.27s-1.09-.61-2.11-.94-1.82-.65-2.41-.97c-1.61-.87-2.42-2.05-2.42-3.53,0-.77.22-1.45.65-2.06s1.05-1.07,1.87-1.41,1.72-.51,2.73-.51,1.92.18,2.71.55,1.41.89,1.85,1.56.66,1.43.66,2.29h-2.93c0-.65-.21-1.16-.62-1.52s-.99-.54-1.73-.54-1.27.15-1.67.45-.6.7-.6,1.2c0,.46.23.85.7,1.16s1.15.61,2.06.88c1.67.5,2.88,1.12,3.64,1.87s1.14,1.67,1.14,2.77c0,1.23-.47,2.2-1.4,2.9s-2.18,1.05-3.76,1.05c-1.09,0-2.09-.2-2.99-.6s-1.58-.95-2.06-1.65-.71-1.5-.71-2.42h2.94c0,1.57.94,2.35,2.81,2.35.7,0,1.24-.14,1.63-.42s.59-.68.59-1.19Z" fill="#2f2cb7"/>
    <path d="M83.05,46.84c-.13-.25-.22-.57-.28-.95-.68.76-1.57,1.14-2.67,1.14-1.04,0-1.89-.3-2.57-.9s-1.02-1.35-1.02-2.27c0-1.12.42-1.98,1.25-2.58s2.03-.9,3.6-.91h1.3v-.61c0-.49-.13-.88-.38-1.17s-.65-.44-1.19-.44c-.48,0-.85.11-1.12.34s-.41.54-.41.94h-2.82c0-.61.19-1.18.57-1.7s.91-.93,1.6-1.23,1.46-.44,2.32-.44c1.3,0,2.34.33,3.1.98s1.15,1.57,1.15,2.76v4.58c0,1,.15,1.76.42,2.28v.17h-2.85ZM80.72,44.88c.42,0,.8-.09,1.15-.28s.61-.43.78-.75v-1.82h-1.05c-1.41,0-2.16.49-2.26,1.46v.17c0,.35.11.64.36.87s.59.34,1.02.34Z" fill="#2f2cb7"/>
    <path d="M89.63,46.84h-2.83v-15h2.83v15Z" fill="#2f2cb7"/>
    <path d="M95.82,47.04c-1.55,0-2.81-.48-3.78-1.43s-1.46-2.22-1.46-3.8v-.27c0-1.06.21-2.01.62-2.85s.99-1.48,1.74-1.93,1.61-.68,2.57-.68c1.45,0,2.58.46,3.41,1.37s1.25,2.2,1.25,3.88v1.15h-6.73c.09.69.37,1.24.83,1.66s1.04.62,1.74.62c1.09,0,1.94-.39,2.55-1.18l1.39,1.55c-.42.6-1,1.07-1.72,1.4s-1.52.5-2.4.5ZM95.5,38.35c-.56,0-1.01.19-1.36.57-.35.38-.57.92-.67,1.63h3.93v-.23c-.01-.63-.18-1.11-.51-1.46-.33-.34-.79-.51-1.39-.51Z" fill="#2f2cb7"/>
    <path d="M106.49,43.92c0-.34-.17-.62-.51-.82s-.89-.38-1.65-.53c-2.51-.53-3.77-1.59-3.77-3.2,0-.94.39-1.72,1.17-2.35s1.8-.94,3.05-.94c1.34,0,2.41.32,3.22.95s1.21,1.45,1.21,2.46h-2.82c0-.4-.13-.74-.39-1s-.67-.4-1.22-.4c-.48,0-.84.11-1.1.32s-.39.49-.39.82c0,.31.15.56.44.76s.8.36,1.5.5,1.3.3,1.78.47c1.49.55,2.24,1.49,2.24,2.84,0,.96-.41,1.74-1.24,2.34s-1.89.89-3.2.89c-.89,0-1.67-.16-2.36-.47s-1.23-.75-1.62-1.3-.59-1.14-.59-1.78h2.68c.03.5.21.89.56,1.15s.81.4,1.39.4c.54,0,.95-.1,1.23-.31s.42-.47.42-.81Z" fill="#2f2cb7"/>
    <path d="M110.82,46.84v-8.5h-1.57v-2.07h1.57v-.9c0-1.18.34-2.1,1.02-2.76s1.63-.98,2.86-.98c.39,0,.87.07,1.44.2l-.03,2.19c-.23-.06-.52-.09-.86-.09-1.06,0-1.59.5-1.59,1.49v.85h2.1v2.07h-2.1v8.5h-2.83Z" fill="#2f2cb7"/>
    <path d="M115.78,41.46c0-1.05.2-1.98.61-2.8s.98-1.46,1.74-1.9,1.64-.67,2.64-.67c1.43,0,2.59.44,3.49,1.31s1.4,2.06,1.51,3.55l.02.72c0,1.62-.45,2.92-1.36,3.9s-2.12,1.47-3.64,1.47-2.74-.49-3.65-1.46-1.36-2.3-1.36-3.98v-.13ZM118.6,41.66c0,1,.19,1.77.57,2.3s.92.8,1.62.8,1.22-.26,1.6-.79c.38-.53.58-1.36.58-2.52,0-.98-.19-1.75-.58-2.29s-.92-.81-1.62-.81-1.22.27-1.6.81-.57,1.37-.57,2.5Z" fill="#2f2cb7"/>
    <path d="M132.46,38.92c-.38-.05-.72-.08-1.02-.08-1.07,0-1.77.36-2.1,1.08v6.91h-2.82v-10.57h2.67l.08,1.26c.57-.97,1.35-1.46,2.35-1.46.31,0,.61.04.88.13l-.04,2.71Z" fill="#2f2cb7"/>
    <path d="M137.03,44.76c.52,0,.94-.14,1.27-.43s.49-.67.51-1.14h2.65c0,.72-.2,1.37-.59,1.97s-.91,1.06-1.58,1.39-1.4.49-2.21.49c-1.51,0-2.7-.48-3.57-1.44s-1.31-2.29-1.31-3.98v-.19c0-1.63.43-2.93,1.3-3.9s2.05-1.46,3.56-1.46c1.32,0,2.38.38,3.18,1.13s1.2,1.75,1.22,3h-2.65c-.01-.55-.18-1-.51-1.34s-.76-.52-1.29-.52c-.66,0-1.15.24-1.49.72s-.5,1.26-.5,2.33v.29c0,1.09.17,1.87.5,2.35s.84.71,1.51.71Z" fill="#2f2cb7"/>
    <path d="M146.93,47.04c-1.55,0-2.81-.48-3.78-1.43s-1.46-2.22-1.46-3.8v-.27c0-1.06.21-2.01.62-2.85s.99-1.48,1.74-1.93,1.61-.68,2.57-.68c1.45,0,2.58.46,3.41,1.37s1.25,2.2,1.25,3.88v1.15h-6.73c.09.69.37,1.24.83,1.66s1.04.62,1.74.62c1.09,0,1.94-.39,2.55-1.18l1.39,1.55c-.42.6-1,1.07-1.72,1.4s-1.52.5-2.4.5ZM146.61,38.35c-.56,0-1.01.19-1.36.57-.35.38-.57.92-.67,1.63h3.93v-.23c-.01-.63-.18-1.11-.51-1.46-.33-.34-.79-.51-1.39-.51Z" fill="#2f2cb7"/>
    <path d="M158.61,38.48h1.5c.72,0,1.25-.18,1.59-.54s.52-.83.52-1.43-.17-1.02-.51-1.34-.81-.48-1.41-.48c-.54,0-.99.15-1.36.44s-.55.68-.55,1.16h-2.82c0-.74.2-1.41.6-2s.96-1.05,1.68-1.38,1.51-.5,2.38-.5c1.5,0,2.68.36,3.54,1.08s1.28,1.71,1.28,2.97c0,.65-.2,1.25-.6,1.8s-.92.97-1.56,1.26c.8.29,1.4.72,1.79,1.29s.59,1.25.59,2.03c0,1.26-.46,2.28-1.38,3.04s-2.14,1.14-3.66,1.14c-1.42,0-2.58-.37-3.48-1.12s-1.35-1.74-1.35-2.97h2.82c0,.53.2.97.6,1.31s.89.51,1.48.51c.67,0,1.2-.18,1.58-.53s.57-.83.57-1.41c0-1.42-.78-2.13-2.34-2.13h-1.49v-2.21Z" fill="#2f2cb7"/>
    <path d="M173.87,32.48v2.32h-.27c-1.28.02-2.3.35-3.08,1s-1.25,1.54-1.4,2.69c.76-.77,1.71-1.15,2.86-1.15,1.24,0,2.22.44,2.95,1.33s1.09,2.05,1.09,3.5c0,.92-.2,1.76-.6,2.51s-.97,1.33-1.7,1.75-1.56.62-2.49.62c-1.5,0-2.71-.52-3.63-1.56s-1.38-2.43-1.38-4.17v-1.02c0-1.54.29-2.91.87-4.09s1.42-2.1,2.51-2.74,2.35-.97,3.79-.98h.47ZM171.12,39.6c-.46,0-.87.12-1.24.36-.37.24-.64.55-.82.94v.86c0,.94.19,1.68.56,2.21.37.53.89.79,1.56.79.61,0,1.1-.24,1.47-.72s.56-1.1.56-1.86-.19-1.4-.57-1.87c-.38-.47-.89-.71-1.52-.71Z" fill="#2f2cb7"/>
    <path d="M186.26,40.96c0,1.97-.41,3.47-1.22,4.51s-2.01,1.56-3.57,1.56-2.73-.51-3.55-1.53-1.24-2.49-1.26-4.39v-2.62c0-1.99.41-3.49,1.24-4.52s2.01-1.54,3.56-1.54,2.73.51,3.55,1.53,1.24,2.48,1.26,4.39v2.62ZM183.44,38.08c0-1.18-.16-2.04-.48-2.58-.32-.54-.83-.81-1.51-.81s-1.15.26-1.47.77-.48,1.31-.5,2.4v3.46c0,1.16.16,2.02.47,2.58s.82.85,1.52.85,1.19-.27,1.49-.81.47-1.37.48-2.48v-3.38Z" fill="#2f2cb7"/>
  </g>
  <g>
    <circle cx="34" cy="40" r="25" fill="#bec7f6"/>
    <path d="M39.89,44.86c2.33-1.78,3.83-4.58,3.83-7.73,0-5.37-4.35-9.72-9.72-9.72s-9.72,4.35-9.72,9.72c0,3.15,1.5,5.95,3.83,7.73-4.05.69-7.61,3.07-9.87,6.31,5.23,6.53,13.3,10.72,22.32,10.72,2.46,0,4.85-.39,7.13-.97,1.65-1.08,3.16-2.35,4.5-3.77-1.07-6.27-6.02-11.22-12.29-12.28Z" fill="#2f2cb7"/>
    <circle cx="34" cy="21.15" r="3.71" fill="#fff"/>
    <circle cx="23.36" cy="24.88" r="3.71" fill="#fff"/>
    <circle cx="44.59" cy="24.88" r="3.71" fill="#fff"/>
    <circle cx="50.15" cy="34.72" r="3.71" fill="#fff"/>
    <circle cx="17.68" cy="34.72" r="3.71" fill="#fff"/>
    <path d="M12.04,33.28c0-2.25.27-4.43.76-6.53-2.4,3.84-3.8,8.38-3.8,13.25,0,6.64,2.59,12.67,6.82,17.15.38-2.22,1.24-4.27,2.48-6.05-3.91-4.88-6.25-11.07-6.25-17.82Z" fill="#7f8ced"/>
    <path d="M34,65c5.05,0,9.75-1.5,13.68-4.08-2.27.58-4.66.89-7.11.89-9.01,0-17.05-4.18-22.27-10.71-1.24,1.77-2.1,3.83-2.48,6.05,4.56,4.83,11.02,7.85,18.18,7.85Z" fill="#321d71"/>
    <path d="M40.27,36.42c-1.75-2.74-4.2-4.1-7.24-5.39-.45-.19-.46-.84,0-1.02,1.8-.7,3.82.03,5.4,1.01s2.95,2.99,3.08,5.3c.03.48-.96.54-1.24.11Z" fill="#fcfdfe"/>
  </g>
</svg>