<?xml version="1.0" encoding="UTF-8"?>
<svg id="Layer_1" data-name="Layer 1" xmlns="http://www.w3.org/2000/svg" viewBox="0 0 16 16">
  <circle cx="8" cy="8" r="8" fill="#bec7f6"/>
  <path d="M9.89,9.56c.74-.57,1.22-1.46,1.22-2.47,0-1.72-1.39-3.11-3.11-3.11s-3.11,1.39-3.11,3.11c0,1.01.48,1.9,1.22,2.47-1.3.22-2.43.98-3.16,2.02,1.67,2.09,4.26,3.43,7.14,3.43.79,0,1.55-.13,2.28-.31.53-.35,1.01-.75,1.44-1.21-.34-2.01-1.93-3.59-3.93-3.93Z" fill="#2f2cb7"/>
  <circle cx="8" cy="1.97" r="1.19" fill="#fff"/>
  <circle cx="4.6" cy="3.16" r="1.19" fill="#fff"/>
  <circle cx="11.39" cy="3.16" r="1.19" fill="#fff"/>
  <circle cx="13.17" cy="6.31" r="1.19" fill="#fff"/>
  <circle cx="2.78" cy="6.31" r="1.19" fill="#fff"/>
  <path d="M.97,5.85c0-.72.09-1.42.24-2.09-.77,1.23-1.22,2.68-1.22,4.24,0,2.12.83,4.05,2.18,5.49.12-.71.4-1.37.79-1.93-1.25-1.56-2-3.54-2-5.7Z" fill="#7f8ced"/>
  <path d="M8,16c1.62,0,3.12-.48,4.38-1.31-.73.19-1.49.29-2.28.29-2.88,0-5.45-1.34-7.13-3.43-.4.57-.67,1.22-.79,1.93,1.46,1.55,3.53,2.51,5.82,2.51Z" fill="#321d71"/>
  <path d="M10.01,6.85c-.56-.88-1.34-1.31-2.32-1.73-.14-.06-.15-.27,0-.33.58-.22,1.22,0,1.73.32s.95.96.99,1.7c0,.15-.31.17-.4.03Z" fill="#fcfdfe"/>
</svg>