<?xml version="1.0" encoding="UTF-8"?>
<svg id="Layer_1" data-name="Layer 1" xmlns="http://www.w3.org/2000/svg" viewBox="0 0 64 64">
  <circle cx="32" cy="32" r="30" fill="#bec7f6"/>
  <path d="M39.07,37.83c2.79-2.13,4.59-5.49,4.59-9.27,0-6.44-5.22-11.66-11.66-11.66s-11.66,5.22-11.66,11.66c0,3.78,1.8,7.14,4.59,9.27-4.86.83-9.13,3.69-11.84,7.57,6.27,7.83,15.96,12.86,26.78,12.86,2.95,0,5.82-.47,8.55-1.17,1.98-1.29,3.79-2.82,5.4-4.53-1.28-7.53-7.22-13.46-14.75-14.74Z" fill="#2f2cb7"/>
  <circle cx="32" cy="9.38" r="4.45" fill="#fff"/>
  <circle cx="19.23" cy="13.86" r="4.45" fill="#fff"/>
  <circle cx="44.71" cy="13.86" r="4.45" fill="#fff"/>
  <circle cx="51.38" cy="25.66" r="4.45" fill="#fff"/>
  <circle cx="12.41" cy="25.66" r="4.45" fill="#fff"/>
  <path d="M5.65,23.94c0-2.7.32-5.32.91-7.83-2.89,4.61-4.56,10.05-4.56,15.89,0,7.97,3.11,15.2,8.18,20.57.45-2.66,1.49-5.13,2.98-7.25-4.69-5.86-7.51-13.29-7.51-21.38Z" fill="#7f8ced"/>
  <path d="M32,62c6.06,0,11.7-1.8,16.42-4.9-2.73.7-5.59,1.07-8.54,1.07-10.82,0-20.46-5.02-26.73-12.86-1.48,2.13-2.52,4.59-2.98,7.25,5.47,5.8,13.22,9.43,21.82,9.43Z" fill="#321d71"/>
  <path d="M39.52,27.7c-2.1-3.29-5.04-4.92-8.68-6.47-.54-.23-.55-1.01,0-1.22,2.16-.84,4.59.03,6.48,1.21s3.54,3.59,3.7,6.36c.03.58-1.15.65-1.49.13Z" fill="#fcfdfe"/>
</svg>